<?xml version="1.0" encoding="UTF-8" standalone="no"?>
<!-- Created with Inkscape (http://www.inkscape.org/) -->

<svg
   xmlns:dc="http://purl.org/dc/elements/1.1/"
   xmlns:cc="http://creativecommons.org/ns#"
   xmlns:rdf="http://www.w3.org/1999/02/22-rdf-syntax-ns#"
   xmlns:svg="http://www.w3.org/2000/svg"
   xmlns="http://www.w3.org/2000/svg"
   xmlns:sodipodi="http://sodipodi.sourceforge.net/DTD/sodipodi-0.dtd"
   xmlns:inkscape="http://www.inkscape.org/namespaces/inkscape"
   width="100.34721mm"
   height="73.193886mm"
   viewBox="0 0 100.34721 73.193886"
   version="1.1"
   id="svg8"
   inkscape:version="0.92.3 (2405546, 2018-03-11)"
   sodipodi:docname="Body_Batteryholder.svg">
  <defs
     id="defs2">
    <marker
       style="overflow:visible"
       refY="0"
       refX="0"
       orient="auto"
       id="DistanceX">
      <path
         id="path817"
         style="stroke:#000000;stroke-width:0.5"
         d="M 3,-3 -3,3 M 0,-5 V 5"
         inkscape:connector-curvature="0" />
    </marker>
    <pattern
       y="0"
       x="0"
       width="8"
       patternUnits="userSpaceOnUse"
       id="Hatch"
       height="8">
      <path
         id="path820"
         stroke-width="0.25"
         stroke="#000000"
         linecap="square"
         d="M8 4 l-4,4" />
      <path
         id="path822"
         stroke-width="0.25"
         stroke="#000000"
         linecap="square"
         d="M6 2 l-4,4" />
      <path
         id="path824"
         stroke-width="0.25"
         stroke="#000000"
         linecap="square"
         d="M4 0 l-4,4" />
    </pattern>
    <symbol
       id="*MODEL_SPACE" />
    <symbol
       id="*PAPER_SPACE" />
  </defs>
  <sodipodi:namedview
     id="base"
     pagecolor="#ffffff"
     bordercolor="#666666"
     borderopacity="1.0"
     inkscape:pageopacity="0.0"
     inkscape:pageshadow="2"
     inkscape:zoom="0.495"
     inkscape:cx="132.33444"
     inkscape:cy="328.43348"
     inkscape:document-units="mm"
     inkscape:current-layer="g871"
     showgrid="false"
     fit-margin-top="0"
     fit-margin-left="0"
     fit-margin-right="0"
     fit-margin-bottom="0"
     inkscape:window-width="1920"
     inkscape:window-height="986"
     inkscape:window-x="-11"
     inkscape:window-y="-11"
     inkscape:window-maximized="1" />
  <metadata
     id="metadata5">
    <rdf:RDF>
      <cc:Work
         rdf:about="">
        <dc:format>image/svg+xml</dc:format>
        <dc:type
           rdf:resource="http://purl.org/dc/dcmitype/StillImage" />
        <dc:title></dc:title>
      </cc:Work>
    </rdf:RDF>
  </metadata>
  <g
     inkscape:label="Ebene 1"
     inkscape:groupmode="layer"
     id="layer1"
     transform="translate(-268.08555,-288.83726)">
    <g
       id="g871"
       inkscape:label="Back"
       transform="matrix(-0.26458333,0,0,-0.26458333,304.84808,621.97022)">
      <g
         id="g4569"
         transform="rotate(180,-439.98764,1069.8702)">
        <path
           sodipodi:nodetypes="cccccccccccccccsccscccscccccccccccscccccccsccccccssccsccccccccccscccsscccccsccsccccsccscc"
           inkscape:connector-curvature="0"
           id="path4566"
           d="m -642.27931,1087.0267 c 1.03463,0.4618 2.09014,1.6428 2.38399,2.6674 0.14246,0.4967 0.24318,5.0606 0.23999,10.8747 -0.005,9.2111 -0.0429,10.101 -0.46939,11.0401 -0.56777,1.2501 -1.42352,1.9506 -3.03786,2.4868 -1.65183,0.5487 -2.26351,1.3601 -3.232,4.2873 -1.8185,5.4964 -4.88753,11.3844 -8.36781,16.0538 -2.34947,3.1522 -7.93444,8.8373 -10.82075,11.0146 -8.70469,6.5664 -18.68179,10.5079 -29.40198,11.6155 -5.8121,0.6004 -13.75459,-0.02 -19.63486,-1.533 -15.03241,-3.8687 -27.76468,-13.7075 -35.56056,-27.4792 -1.50772,-2.6635 -2.93671,-5.9226 -4.18849,-9.553 -0.54904,-1.5922 -1.23523,-3.1473 -1.52492,-3.4556 -0.28967,-0.3083 -1.07744,-0.7436 -1.75061,-0.9671 -1.49828,-0.4977 -2.66652,-1.4458 -3.12064,-2.5327 -0.26981,-0.6457 -0.34159,-2.9943 -0.34159,-11.1789 0,-10.3327 0.003,-10.3643 0.57666,-11.4518 0.39417,-0.7454 0.92182,-1.273 1.66717,-1.6672 1.07185,-0.5668 1.22604,-0.5766 9.0117,-0.5766 7.72091,0 7.9491,0.014 9.02393,0.5634 2.09246,1.0692 2.64075,2.5335 2.10063,5.6102 -2.26604,12.9087 1.34111,25.2408 10.05017,34.3594 9.57965,10.0301 23.13758,14.2012 36.6469,11.2743 10.09237,-2.1866 19.443,-8.8083 24.79297,-17.5574 2.41544,-3.95 4.09718,-8.173 5.09804,-12.8014 0.75007,-3.4688 0.811,-11.3174 0.11637,-14.9927 -0.52294,-2.7671 -0.36292,-3.7723 0.80332,-5.0467 1.24985,-1.3658 1.5732,-1.41 10.22925,-1.3993 6.0913,0.01 8.1354,0.089 8.71037,0.3451 z m -17.67176,1.2142 c -0.47762,0.3219 -0.9976,0.9762 -1.20152,1.512 -0.32093,0.8432 -0.30846,1.2052 0.11632,3.3767 0.71191,3.6392 0.65542,11.4652 -0.10839,15.016 -3.05082,14.1828 -12.73427,25.3293 -26.02299,29.9548 -4.91515,1.7108 -7.03301,2.0375 -13.21066,2.0375 -4.84005,0 -5.82247,-0.07 -8.08645,-0.5773 -3.66417,-0.8207 -6.03013,-1.6326 -9.24538,-3.1726 -11.13169,-5.3316 -18.81989,-15.0146 -21.77798,-27.4283 -0.935,-3.9237 -1.10061,-10.9109 -0.36127,-15.2412 0.51898,-3.0397 0.52011,-3.1146 0.0621,-4.1501 -0.81804,-1.8493 -1.06178,-1.8951 -10.08811,-1.894 -7.34462,0 -7.90227,0.032 -8.65235,0.4898 -1.58435,0.966 -1.57731,0.911 -1.57731,12.3568 0,10.3592 0,10.3688 0.56794,11.219 0.43076,0.6454 0.92215,0.9663 2.03437,1.3285 2.19076,0.7134 2.85679,1.5355 3.98902,4.9236 2.8187,8.4346 7.34549,15.724 13.67585,22.0217 8.9598,8.9137 20.0271,14.313 32.62773,15.9175 4.42827,0.564 12.04329,0.3922 16.22286,-0.3659 11.87386,-2.1536 22.03818,-7.4774 30.42685,-15.9368 5.87823,-5.9278 10.42575,-13.2984 13.14037,-21.2978 1.24132,-3.6579 1.95283,-4.6263 3.75592,-5.1118 1.47395,-0.3969 2.14351,-0.8756 2.61542,-1.8701 0.34216,-0.7211 0.39721,-2.2299 0.39721,-10.8869 0,-11.1184 -0.0298,-11.3543 -1.55009,-12.2813 -0.7859,-0.4791 -1.24653,-0.5054 -8.86819,-0.5063 -7.93975,0 -8.04964,0.01 -8.88125,0.5665 z m 9.31733,5.4202 c 0.58395,0.4725 0.59216,0.5454 0.66901,5.9477 0.0428,3.0081 0.0102,5.8319 -0.0725,6.2752 -0.2831,1.5184 -1.42488,2.0319 -2.38441,1.0723 -0.47355,-0.4735 -0.50065,-0.832 -0.49702,-6.5737 0.002,-3.34 0.0866,-6.1968 0.18782,-6.3484 0.17278,-0.2587 1.14164,-0.8513 1.39191,-0.8513 0.0627,0 0.37998,0.2152 0.70514,0.4782 z m -1.16179,6.6798 c 0,5.1569 0.0522,5.9894 0.37564,5.9894 0.32105,0 0.38545,-0.8363 0.4431,-5.7544 0.0371,-3.165 0.009,-5.9071 -0.0627,-6.0937 -0.0716,-0.1866 -0.271,-0.2924 -0.44309,-0.235 -0.23863,0.08 -0.31291,1.5261 -0.31291,6.0937 z m -96.52732,-6.645 c 0.49401,0.494 0.51024,0.7453 0.43824,6.782 -0.07,5.8694 -0.10575,6.2917 -0.56088,6.6242 -0.67385,0.4922 -1.30342,0.4438 -1.89295,-0.1458 -0.47361,-0.4736 -0.50085,-0.8347 -0.50085,-6.6363 0,-5.8015 0.0272,-6.1627 0.50085,-6.6363 0.64132,-0.6413 1.36646,-0.637 2.01559,0.012 z m -1.45666,6.6867 c 0.0525,4.653 0.13741,5.9477 0.38999,5.9477 0.25441,0 0.32182,-1.2345 0.31794,-5.8225 -0.003,-3.2023 -0.007,-5.8787 -0.01,-5.9476 -0.003,-0.069 -0.17597,-0.1252 -0.38508,-0.1252 -0.33116,0 -0.37151,0.7668 -0.31303,5.9476 z"
           style="fill:#000000;stroke-width:0.25042671" />
      </g>
      <path
         id="path831"
         style="fill:none;stroke:#000000"
         d="m -134.74427,1141.4173 c -0.96229,-8.1474 -1.41371,-20.7029 0,-37.7953 9.92636,-70.7771 72.92429,-121.81089 144.1962949,-116.83287 71.2696421,4.97785 126.4983851,64.26727 126.4983851,135.73057 0,71.4632 -55.228743,130.7526 -126.4983851,135.7305 -71.2720049,4.978 -134.2699349,-46.0558 -144.1962949,-116.8329 z"
         inkscape:connector-curvature="0"
         sodipodi:nodetypes="ccsssc" />
      <path
         id="path833"
         style="opacity:0.9;fill:#b3b3b3;stroke:none"
         d="m 5.455278,1131.9685 5.455278,-9.4488 -5.455278,-9.4488 H -5.455278 l -5.455278,9.4488 5.455278,9.4488 z"
         inkscape:connector-curvature="0"
         inkscape:label="Hex" />
      <g
         id="g937"
         inkscape:label="LED">
        <path
           inkscape:connector-curvature="0"
           d="m -109.33734,1180.9541 a 0.944882,0.944882 0 1 0 -1.88976,0 0.944882,0.944882 0 1 0 1.88976,0 z"
           style="fill:none;stroke:#000000"
           id="path835" />
        <path
           inkscape:connector-curvature="0"
           d="m -104.80191,1188.8097 a 0.944882,0.944882 0 1 0 -1.88976,0 0.944882,0.944882 0 1 0 1.88976,0 z"
           style="fill:none;stroke:#000000"
           id="path837" />
        <path
           inkscape:connector-curvature="0"
           d="m -3.590551,997.79528 a 0.944882,0.944882 0 1 0 -1.889764,0 0.944882,0.944882 0 1 0 1.889764,0 z"
           style="fill:none;stroke:#000000"
           id="path839" />
        <path
           inkscape:connector-curvature="0"
           d="m 106.69167,1188.8097 a 0.944882,0.944882 0 1 0 -1.88976,0 0.944882,0.944882 0 1 0 1.88976,0 z"
           style="fill:none;stroke:#000000"
           id="path841" />
        <path
           inkscape:connector-curvature="0"
           d="m 111.2271,1180.9541 a 0.944882,0.944882 0 1 0 -1.88976,0 0.944882,0.944882 0 1 0 1.88976,0 z"
           style="fill:none;stroke:#000000"
           id="path843" />
        <path
           inkscape:connector-curvature="0"
           d="m 5.480315,997.79528 a 0.944882,0.944882 0 1 0 -1.889764,0 0.944882,0.944882 0 1 0 1.889764,0 z"
           style="fill:none;stroke:#000000"
           id="path845" />
      </g>
      <rect
         style="opacity:0.9;fill:#b3b3b3;fill-opacity:1;stroke:none;stroke-width:19.11343193"
         id="rect4554"
         width="26.022791"
         height="37.588478"
         x="-138.94501"
         y="-1141.2363"
         transform="scale(-1)" />
      <circle
         style="fill:none;fill-opacity:1;stroke:#000000;stroke-width:0.75590551;stroke-miterlimit:4;stroke-dasharray:none"
         id="path4556"
         cx="0.14977995"
         cy="-1122.5566"
         transform="scale(-1)"
         r="4.8211827" />
    </g>
  </g>
</svg>
